# xmcd
#
# Track frame offsets:
#	150
#	22935
#	43512
#	62875
#	83245
#	105125
#	127115
#	149262
#	171375
#	190612
#
# Disc length: 2800 seconds
#
# Revision: 1
# Processed by: cddbd v1.5PL3 Copyright (c) Steve Scherf et al.
# Submitted via: CDex 1.50Beta5
#
DISCID=7f0aee0a
DTITLE=河合奈保子 - スターダスト・ガーデン
DYEAR=1900
DGENRE=
TTITLE0=暁のスカイパイロット
TTITLE1=オリエンタル・アイズ
TTITLE2=海流の島
TTITLE3=八月の水鏡
TTITLE4=夏のキャンドル
TTITLE5=チャイナタウン・ラプソディ
TTITLE6=スターダスト・ガーデン
TTITLE7=南回帰線
TTITLE8=永遠のシネマハウス
TTITLE9=千年庭園
EXTD=
EXTT0=
EXTT1=
EXTT2=
EXTT3=
EXTT4=
EXTT5=
EXTT6=
EXTT7=
EXTT8=
EXTT9=
PLAYORDER=
